# xmcd
#
# Track frame offsets: 
#        190
#        10047
#        21560
#        30902
#        40522
#        51605
#        69500
#        84500
#        100547
#        112240
#        133180
#
# Disc length: 2025 seconds
#
# Revision: 2
# Processed by: cddbd v1.5.2PL0 Copyright (c) Steve Scherf et al.
# Submitted via: ExactAudioCopy v1.2
#
DISCID=8b07e70b
DTITLE=Taj Mahal - Mule Bone
DYEAR=1991
DGENRE=Blues
TTITLE0=Jubilee
TTITLE1=Graveyard Mule
TTITLE2=Me and the Mule
TTITLE3=Song for a Banjo Dance
TTITLE4=But I Rode Some
TTITLE5=Hey Hey Blues
TTITLE6=Shake That Thing
TTITLE7=The Intermission Blues
TTITLE8=Crossing (Lonely Day)
TTITLE9=Bound No'th Blues
TTITLE10=Finale
EXTD=Lyrics by Langston Hughes\n
EXTT0=
EXTT1=
EXTT2=
EXTT3=
EXTT4=
EXTT5=
EXTT6=
EXTT7=
EXTT8=
EXTT9=
EXTT10=
PLAYORDER=
